<?xml version="1.0" encoding="UTF-8" standalone="no" ?>
<!DOCTYPE svg PUBLIC "-//W3C//DTD SVG 1.1//EN" "http://www.w3.org/Graphics/SVG/1.1/DTD/svg11.dtd">
<svg xmlns="http://www.w3.org/2000/svg" xmlns:xlink="http://www.w3.org/1999/xlink" version="1.1" width="1080" height="1080" viewBox="0 0 1080 1080" xml:space="preserve">
<desc>Created with Fabric.js 5.2.4</desc>
<defs>
</defs>
<g transform="matrix(1 0 0 1 540 540)" id="4f6237eb-fd73-433b-8d00-2ab19ba4d5ea"  >
<rect style="stroke: none; stroke-width: 1; stroke-dasharray: none; stroke-linecap: butt; stroke-dashoffset: 0; stroke-linejoin: miter; stroke-miterlimit: 4; fill: rgb(255,255,255); fill-rule: nonzero; opacity: 1; visibility: hidden;" vector-effect="non-scaling-stroke"  x="-540" y="-540" rx="0" ry="0" width="1080" height="1080" />
</g>
<g transform="matrix(1 0 0 1 540 540)" id="485f255f-2ea1-4d0b-8fb4-7f231e61a9d4"  >
</g>
<g transform="matrix(1 0 0 1 564.23 510.49)" style="" id="1ebbdd40-fcdd-4ab5-a21d-ef76b0f55f31"  >
		<text xml:space="preserve" font-family="Alegreya" font-size="20" font-style="normal" font-weight="900" style="stroke: none; stroke-width: 1; stroke-dasharray: none; stroke-linecap: butt; stroke-dashoffset: 0; stroke-linejoin: miter; stroke-miterlimit: 4; fill: rgb(255,255,255); fill-rule: nonzero; opacity: 1; white-space: pre;" ><tspan x="-67.78" y="6.28" >KnowledgeBase</tspan></text>
</g>
<g transform="matrix(1 0 0 1 461.37 506.81)"  >
<polygon style="stroke: none; stroke-width: 1; stroke-dasharray: none; stroke-linecap: butt; stroke-dashoffset: 0; stroke-linejoin: miter; stroke-miterlimit: 4; fill: rgb(20,191,152); fill-rule: nonzero; opacity: 1;" vector-effect="non-scaling-stroke"  points="1.85,-3.3 -1.95,-3.3 -3.85,0 -1.95,3.3 1.85,3.3 3.85,0 1.85,-3.3 " />
</g>
<g transform="matrix(1 0 0 1 465.93 498.91)"  >
<polygon style="stroke: none; stroke-width: 1; stroke-dasharray: none; stroke-linecap: butt; stroke-dashoffset: 0; stroke-linejoin: miter; stroke-miterlimit: 4; fill: rgb(20,191,152); fill-rule: nonzero; opacity: 1;" vector-effect="non-scaling-stroke"  points="1.9,-3.3 -1.9,-3.3 -3.8,0 -1.9,3.3 1.9,3.3 3.8,0 1.9,-3.3 " />
</g>
<g transform="matrix(1 0 0 1 470.44 491.11)"  >
<polygon style="stroke: none; stroke-width: 1; stroke-dasharray: none; stroke-linecap: butt; stroke-dashoffset: 0; stroke-linejoin: miter; stroke-miterlimit: 4; fill: rgb(20,191,152); fill-rule: nonzero; opacity: 1;" vector-effect="non-scaling-stroke"  points="1.9,-3.3 -1.9,-3.3 -3.8,0 -1.9,3.3 1.9,3.3 3.8,0 1.9,-3.3 " />
</g>
<g transform="matrix(1 0 0 1 479.51 491.11)"  >
<polygon style="stroke: none; stroke-width: 1; stroke-dasharray: none; stroke-linecap: butt; stroke-dashoffset: 0; stroke-linejoin: miter; stroke-miterlimit: 4; fill: rgb(20,191,152); fill-rule: nonzero; opacity: 1;" vector-effect="non-scaling-stroke"  points="1.95,-3.3 -1.95,-3.3 -3.85,0 -1.95,3.3 1.95,3.3 3.85,0 1.95,-3.3 " />
</g>
<g transform="matrix(1 0 0 1 475.2 498.91)"  >
<polygon style="stroke: none; stroke-width: 1; stroke-dasharray: none; stroke-linecap: butt; stroke-dashoffset: 0; stroke-linejoin: miter; stroke-miterlimit: 4; fill: rgb(20,191,152); fill-rule: nonzero; opacity: 1;" vector-effect="non-scaling-stroke"  points="1.45,-2.5 -1.45,-2.5 -2.95,0 -1.45,2.5 1.45,2.5 2.95,0 1.45,-2.5 " />
</g>
<g transform="matrix(1 0 0 1 484.27 498.91)"  >
<polygon style="stroke: none; stroke-width: 1; stroke-dasharray: none; stroke-linecap: butt; stroke-dashoffset: 0; stroke-linejoin: miter; stroke-miterlimit: 4; fill: rgb(20,191,152); fill-rule: nonzero; opacity: 1;" vector-effect="non-scaling-stroke"  points="1.5,-2.5 -1.5,-2.5 -2.9,0 -1.5,2.5 1.5,2.5 2.9,0 1.5,-2.5 " />
</g>
<g transform="matrix(1 0 0 1 475.2 515.51)"  >
<polygon style="stroke: none; stroke-width: 1; stroke-dasharray: none; stroke-linecap: butt; stroke-dashoffset: 0; stroke-linejoin: miter; stroke-miterlimit: 4; fill: rgb(20,191,152); fill-rule: nonzero; opacity: 1;" vector-effect="non-scaling-stroke"  points="1.15,-2 -1.15,-2 -2.25,0 -1.15,2 1.15,2 2.25,0 1.15,-2 " />
</g>
<g transform="matrix(1 0 0 1 484.27 515.51)"  >
<polygon style="stroke: none; stroke-width: 1; stroke-dasharray: none; stroke-linecap: butt; stroke-dashoffset: 0; stroke-linejoin: miter; stroke-miterlimit: 4; fill: rgb(20,191,152); fill-rule: nonzero; opacity: 1;" vector-effect="non-scaling-stroke"  points="1.2,-2 -1.1,-2 -2.3,0 -1.1,2 1.2,2 2.3,0 1.2,-2 " />
</g>
<g transform="matrix(1 0 0 1 479.51 524.16)"  >
<polygon style="stroke: none; stroke-width: 1; stroke-dasharray: none; stroke-linecap: butt; stroke-dashoffset: 0; stroke-linejoin: miter; stroke-miterlimit: 4; fill: rgb(20,191,152); fill-rule: nonzero; opacity: 1;" vector-effect="non-scaling-stroke"  points="0.95,-1.65 -0.95,-1.65 -1.95,-0.05 -0.95,1.65 0.95,1.65 1.95,-0.05 0.95,-1.65 " />
</g>
<g transform="matrix(1 0 0 1 488.63 491.11)"  >
<polygon style="stroke: none; stroke-width: 1; stroke-dasharray: none; stroke-linecap: butt; stroke-dashoffset: 0; stroke-linejoin: miter; stroke-miterlimit: 4; fill: rgb(20,191,152); fill-rule: nonzero; opacity: 1;" vector-effect="non-scaling-stroke"  points="1.85,-3.3 -1.95,-3.3 -3.85,0 -1.95,3.3 1.85,3.3 3.85,0 1.85,-3.3 " />
</g>
<g transform="matrix(1 0 0 1 470.44 506.71)"  >
<polygon style="stroke: none; stroke-width: 1; stroke-dasharray: none; stroke-linecap: butt; stroke-dashoffset: 0; stroke-linejoin: miter; stroke-miterlimit: 4; fill: rgb(20,191,152); fill-rule: nonzero; opacity: 1;" vector-effect="non-scaling-stroke"  points="1.6,-2.7 -1.6,-2.7 -3.1,0 -1.6,2.7 1.6,2.7 3.1,0 1.6,-2.7 " />
</g>
<g transform="matrix(1 0 0 1 488.63 506.71)"  >
<polygon style="stroke: none; stroke-width: 1; stroke-dasharray: none; stroke-linecap: butt; stroke-dashoffset: 0; stroke-linejoin: miter; stroke-miterlimit: 4; fill: rgb(20,191,152); fill-rule: nonzero; opacity: 1;" vector-effect="non-scaling-stroke"  points="1.55,-2.7 -1.55,-2.7 -3.15,0 -1.55,2.7 1.55,2.7 3.15,0 1.55,-2.7 " />
</g>
<g transform="matrix(1 0 0 1 479.51 506.71)"  >
<polygon style="stroke: none; stroke-width: 1; stroke-dasharray: none; stroke-linecap: butt; stroke-dashoffset: 0; stroke-linejoin: miter; stroke-miterlimit: 4; fill: rgb(20,191,152); fill-rule: nonzero; opacity: 1;" vector-effect="non-scaling-stroke"  points="1.35,-2.3 -1.35,-2.3 -2.65,0 -1.35,2.3 1.35,2.3 2.65,0 1.35,-2.3 " />
</g>
<g transform="matrix(1 0 0 1 493.09 498.91)"  >
<polygon style="stroke: none; stroke-width: 1; stroke-dasharray: none; stroke-linecap: butt; stroke-dashoffset: 0; stroke-linejoin: miter; stroke-miterlimit: 4; fill: rgb(20,191,152); fill-rule: nonzero; opacity: 1;" vector-effect="non-scaling-stroke"  points="1.9,-3.3 -1.9,-3.3 -3.8,0 -1.9,3.3 1.9,3.3 3.8,0 1.9,-3.3 " />
</g>
<g transform="matrix(1 0 0 1 465.68 515.51)"  >
<polygon style="stroke: none; stroke-width: 1; stroke-dasharray: none; stroke-linecap: butt; stroke-dashoffset: 0; stroke-linejoin: miter; stroke-miterlimit: 4; fill: rgb(20,191,152); fill-rule: nonzero; opacity: 1;" vector-effect="non-scaling-stroke"  points="1.55,-2.7 -1.55,-2.7 -3.15,0 -1.55,2.7 1.55,2.7 3.15,0 1.55,-2.7 " />
</g>
<g transform="matrix(1 0 0 1 469.03 524.26)"  >
<polygon style="stroke: none; stroke-width: 1; stroke-dasharray: none; stroke-linecap: butt; stroke-dashoffset: 0; stroke-linejoin: miter; stroke-miterlimit: 4; fill: rgb(20,191,152); fill-rule: nonzero; opacity: 1;" vector-effect="non-scaling-stroke"  points="0.9,-1.55 -0.9,-1.55 -1.8,0.05 -0.9,1.55 0.9,1.55 1.8,0.05 0.9,-1.55 " />
</g>
<g transform="matrix(1 0 0 1 497.7 506.81)"  >
<polygon style="stroke: none; stroke-width: 1; stroke-dasharray: none; stroke-linecap: butt; stroke-dashoffset: 0; stroke-linejoin: miter; stroke-miterlimit: 4; fill: rgb(20,191,152); fill-rule: nonzero; opacity: 1;" vector-effect="non-scaling-stroke"  points="1.9,-3.3 -1.9,-3.3 -3.8,0 -1.9,3.3 1.9,3.3 3.8,0 1.9,-3.3 " />
</g>
<g transform="matrix(1 0 0 1 493.34 515.51)"  >
<polygon style="stroke: none; stroke-width: 1; stroke-dasharray: none; stroke-linecap: butt; stroke-dashoffset: 0; stroke-linejoin: miter; stroke-miterlimit: 4; fill: rgb(20,191,152); fill-rule: nonzero; opacity: 1;" vector-effect="non-scaling-stroke"  points="1.55,-2.7 -1.55,-2.7 -3.15,0 -1.55,2.7 1.55,2.7 3.15,0 1.55,-2.7 " />
</g>
<g transform="matrix(1 0 0 1 489.58 523.66)"  >
<polygon style="stroke: none; stroke-width: 1; stroke-dasharray: none; stroke-linecap: butt; stroke-dashoffset: 0; stroke-linejoin: miter; stroke-miterlimit: 4; fill: rgb(20,191,152); fill-rule: nonzero; opacity: 1;" vector-effect="non-scaling-stroke"  points="1.3,-2.15 -1.2,-2.15 -2.5,-0.05 -1.2,2.15 1.3,2.15 2.5,-0.05 1.3,-2.15 " />
</g>
</svg>